<svg xmlns="http://www.w3.org/2000/svg" viewBox="0 0 200 150" width="200" height="150">
  <defs>
    <linearGradient id="panBg" x1="0%" y1="0%" x2="100%" y2="100%">
      <stop offset="0%" stop-color="#FEF9C3"/>
      <stop offset="100%" stop-color="#FEF08A"/>
    </linearGradient>
    <linearGradient id="panPill" x1="0%" y1="0%" x2="100%" y2="100%">
      <stop offset="0%" stop-color="#FACC15"/>
      <stop offset="100%" stop-color="#EAB308"/>
    </linearGradient>
    <linearGradient id="panHeader" x1="0%" y1="0%" x2="100%" y2="100%">
      <stop offset="0%" stop-color="#2563EB"/>
      <stop offset="100%" stop-color="#1D4ED8"/>
    </linearGradient>
    <filter id="pShadow" x="-10%" y="-10%" width="120%" height="120%">
      <feDropShadow dx="0" dy="4" stdDeviation="4" flood-color="#000000" flood-opacity="0.12"/>
    </filter>
  </defs>
  <rect x="5" y="5" width="190" height="140" rx="12" fill="#FEFCE8" stroke="#FEF08A" stroke-width="1.5"/>
  <rect x="25" y="20" width="150" height="110" rx="8" fill="url(#panBg)" stroke="#CA8A04" stroke-width="1.5" filter="url(#pShadow)"/>
  <rect x="25" y="20" width="150" height="24" rx="4" fill="url(#panHeader)"/>
  <text x="100" y="36" fill="#FFFFFF" font-family="Arial, sans-serif" font-size="9" font-weight="bold" text-anchor="middle">PANTOPRAZOLE 40mg (PAN 40)</text>
  
  <rect x="42" y="56" width="30" height="18" rx="9" fill="url(#panPill)" stroke="#A16207" stroke-width="1.2"/>
  <rect x="85" y="56" width="30" height="18" rx="9" fill="url(#panPill)" stroke="#A16207" stroke-width="1.2"/>
  <rect x="128" y="56" width="30" height="18" rx="9" fill="url(#panPill)" stroke="#A16207" stroke-width="1.2"/>

  <rect x="42" y="86" width="30" height="18" rx="9" fill="url(#panPill)" stroke="#A16207" stroke-width="1.2"/>
  <rect x="85" y="86" width="30" height="18" rx="9" fill="url(#panPill)" stroke="#A16207" stroke-width="1.2"/>
  <rect x="128" y="86" width="30" height="18" rx="9" fill="url(#panPill)" stroke="#A16207" stroke-width="1.2"/>

  <text x="100" y="122" fill="#854D0E" font-family="Arial, sans-serif" font-size="7.5" font-weight="bold" text-anchor="middle">GASTRO-RESISTANT TABLETS IP</text>
</svg>
