<svg xmlns="http://www.w3.org/2000/svg" viewBox="0 0 200 150" width="200" height="150">
  <defs>
    <linearGradient id="blisterFoilVitC" x1="0%" y1="0%" x2="100%" y2="100%">
      <stop offset="0%" stop-color="#E2E8F0"/><stop offset="50%" stop-color="#CBD5E1"/><stop offset="100%" stop-color="#94A3B8"/>
    </linearGradient>
    <linearGradient id="orangeAccentVitC" x1="0%" y1="0%" x2="100%" y2="100%">
      <stop offset="0%" stop-color="#F97316"/><stop offset="100%" stop-color="#EA580C"/>
    </linearGradient>
    <linearGradient id="chewableOrange" x1="0%" y1="0%" x2="100%" y2="100%">
      <stop offset="0%" stop-color="#FED7AA"/><stop offset="100%" stop-color="#FDBA74"/>
    </linearGradient>
  </defs>
  <rect x="5" y="5" width="190" height="140" rx="12" fill="#F8FAFC" stroke="#E2E8F0" stroke-width="1.5"/>
  <rect x="25" y="20" width="150" height="110" rx="8" fill="url(#blisterFoilVitC)" stroke="#94A3B8" stroke-width="1.5"/>
  <path d="M 25 28 Q 25 20 33 20 L 167 20 Q 175 20 175 28 L 175 42 L 25 42 Z" fill="url(#orangeAccentVitC)"/>
  <text x="100" y="34" fill="#FFFFFF" font-family="Arial, sans-serif" font-size="8.5" font-weight="bold" text-anchor="middle" letter-spacing="0.5">VITAMIN C 500mg (LIMCEE)</text>
  <circle cx="53" cy="62" r="14" fill="url(#chewableOrange)" stroke="#EA580C" stroke-width="1.2"/>
  <circle cx="100" cy="62" r="14" fill="url(#chewableOrange)" stroke="#EA580C" stroke-width="1.2"/>
  <circle cx="147" cy="62" r="14" fill="url(#chewableOrange)" stroke="#EA580C" stroke-width="1.2"/>
  <circle cx="53" cy="97" r="14" fill="url(#chewableOrange)" stroke="#EA580C" stroke-width="1.2"/>
  <circle cx="100" cy="97" r="14" fill="url(#chewableOrange)" stroke="#EA580C" stroke-width="1.2"/>
  <circle cx="147" cy="97" r="14" fill="url(#chewableOrange)" stroke="#EA580C" stroke-width="1.2"/>
</svg>