<svg xmlns="http://www.w3.org/2000/svg" viewBox="0 0 200 150" width="200" height="150">
  <defs>
    <linearGradient id="blisterFoilZn" x1="0%" y1="0%" x2="100%" y2="100%">
      <stop offset="0%" stop-color="#E2E8F0"/><stop offset="50%" stop-color="#CBD5E1"/><stop offset="100%" stop-color="#94A3B8"/>
    </linearGradient>
    <linearGradient id="pillGradZn" x1="0%" y1="0%" x2="100%" y2="100%">
      <stop offset="0%" stop-color="#FFFFFF"/><stop offset="100%" stop-color="#E0E7FF"/>
    </linearGradient>
    <linearGradient id="greenAccentZn" x1="0%" y1="0%" x2="100%" y2="100%">
      <stop offset="0%" stop-color="#10B981"/><stop offset="100%" stop-color="#047857"/>
    </linearGradient>
  </defs>
  <rect x="5" y="5" width="190" height="140" rx="12" fill="#F8FAFC" stroke="#E2E8F0" stroke-width="1.5"/>
  <rect x="25" y="20" width="150" height="110" rx="8" fill="url(#blisterFoilZn)" stroke="#94A3B8" stroke-width="1.5"/>
  <path d="M 25 28 Q 25 20 33 20 L 167 20 Q 175 20 175 28 L 175 42 L 25 42 Z" fill="url(#greenAccentZn)"/>
  <text x="100" y="34" fill="#FFFFFF" font-family="Arial, sans-serif" font-size="8.5" font-weight="bold" text-anchor="middle" letter-spacing="0.5">ZINC GLUCONATE 50mg</text>
  <rect x="35" y="50" width="36" height="24" rx="12" fill="url(#pillGradZn)" stroke="#64748B" stroke-width="1"/>
  <circle cx="53" cy="62" r="5" fill="#10B981" fill-opacity="0.3"/>
  <rect x="82" y="50" width="36" height="24" rx="12" fill="url(#pillGradZn)" stroke="#64748B" stroke-width="1"/>
  <circle cx="100" cy="62" r="5" fill="#10B981" fill-opacity="0.3"/>
  <rect x="129" y="50" width="36" height="24" rx="12" fill="url(#pillGradZn)" stroke="#64748B" stroke-width="1"/>
  <circle cx="147" cy="62" r="5" fill="#10B981" fill-opacity="0.3"/>
  <rect x="35" y="85" width="36" height="24" rx="12" fill="url(#pillGradZn)" stroke="#64748B" stroke-width="1"/>
  <circle cx="53" cy="97" r="5" fill="#10B981" fill-opacity="0.3"/>
  <rect x="82" y="85" width="36" height="24" rx="12" fill="url(#pillGradZn)" stroke="#64748B" stroke-width="1"/>
  <circle cx="100" cy="97" r="5" fill="#10B981" fill-opacity="0.3"/>
  <rect x="129" y="85" width="36" height="24" rx="12" fill="url(#pillGradZn)" stroke="#64748B" stroke-width="1"/>
  <circle cx="147" cy="97" r="5" fill="#10B981" fill-opacity="0.3"/>
</svg>